<svg width="1440" height="1024" viewBox="0 0 1440 1024" fill="none" xmlns="http://www.w3.org/2000/svg">
<g id="droon">
<rect width="1440" height="1024" fill="#9CC4E3"/>
<path id="o2" fill-rule="evenodd" clip-rule="evenodd" d="M825.5 568C855.047 568 879 546.734 879 520.5C879 494.266 855.047 473 825.5 473C795.953 473 772 494.266 772 520.5C772 546.734 795.953 568 825.5 568ZM825.5 540C836.822 540 846 531.046 846 520C846 508.954 836.822 500 825.5 500C814.178 500 805 508.954 805 520C805 531.046 814.178 540 825.5 540Z" fill="white"/>
<path id="o1" fill-rule="evenodd" clip-rule="evenodd" d="M706.5 568C736.047 568 760 546.734 760 520.5C760 494.266 736.047 473 706.5 473C676.953 473 653 494.266 653 520.5C653 546.734 676.953 568 706.5 568ZM706.5 540C717.822 540 727 531.046 727 520C727 508.954 717.822 500 706.5 500C695.178 500 686 508.954 686 520C686 531.046 695.178 540 706.5 540Z" fill="white"/>
<path id="d" fill-rule="evenodd" clip-rule="evenodd" d="M558 421H526V477.56C520.354 474.636 513.542 473 505.5 473C473.5 473 454.5 494.266 454.5 520.5C454.5 546.734 471.505 567.5 500.5 567.5C510.364 567.5 518.956 562.697 526 556.143V566H558V421ZM525.617 520C525.617 531.046 516.61 540 505.5 540C494.39 540 485.383 531.046 485.383 520C485.383 508.954 494.39 500 505.5 500C516.61 500 525.617 508.954 525.617 520Z" fill="white"/>
<path id="r" fill-rule="evenodd" clip-rule="evenodd" d="M608 490.5C609.667 485.167 618.9 474.5 642.5 474.5V504.5C641.167 502.833 635.8 499.9 625 501.5C614.2 503.1 609.167 514.833 608 520.5V566H577V476H608V490.5Z" fill="white"/>
<path id="n" fill-rule="evenodd" clip-rule="evenodd" d="M956.5 565.5H988V503.5C988 492 977 474.5 956.5 474.5C937.139 474.5 928.736 481.928 926 487.486V476H895V568H926V509.984C927.831 505.277 931.977 499.684 939.5 499C950.5 498 956.5 505.7 956.5 510.5V565.5Z" fill="white"/>
<g id="group1">
<path id="shape1" d="M688.68 450.003L747.524 391.166C769.702 368.99 805.658 368.991 827.836 391.168V391.168C850.015 413.347 850.014 449.307 827.833 471.485L768.995 530.317L688.68 450.003Z" fill="white"/>
<rect id="rectangle1" x="770.32" y="529" width="113.59" height="64" transform="rotate(-135 770.32 529)" fill="white"/>
</g>
<g id="group2">
<path id="shape2" d="M716.212 442.629L799.423 442.634C830.788 442.636 856.212 468.062 856.212 499.426V499.426C856.212 530.793 830.784 556.22 799.417 556.218L716.212 556.214V442.629Z" fill="white"/>
<rect id="rectangle2" x="720" y="556.2" width="113.59" height="64" transform="rotate(-90 720 556.2)" fill="white"/>
</g>
<g id="group3">
<path id="shape3" d="M771.412 470.509L830.329 529.433C852.46 551.567 852.459 587.451 830.327 609.584V609.584C808.192 631.718 772.304 631.717 750.171 609.581L691.258 550.662L771.412 470.509Z" fill="white"/>
<rect id="rectangle3" x="693.7" y="553.32" width="113.59" height="64" transform="rotate(-45 693.7 553.32)" fill="white"/>
</g>
<g id="group4">
<path id="shape4" d="M776.257 502L776.253 585.211C776.251 616.575 750.824 642 719.46 642V642C688.093 642 662.666 616.571 662.668 585.204L662.673 502H776.257Z" fill="white"/>
<rect id="rectangle4" x="662.7" y="504" width="113.59" height="64" fill="white"/>
</g>
<g id="group5">
<path id="shape5" d="M751.161 547.839L692.318 606.676C670.139 628.852 634.183 628.851 612.006 606.673V606.673C589.827 584.494 589.828 548.534 612.008 526.357L670.847 467.525L751.161 547.839Z" fill="white"/>
<rect id="rectangle5" x="669.3" y="469" width="113.59" height="64" transform="rotate(45 669.3 469)" fill="white"/>
</g>
<g id="group6">
<path id="shape6" d="M717.969 556.222L634.758 556.217C603.394 556.215 577.969 530.789 577.969 499.424V499.424C577.969 468.058 603.398 442.63 634.765 442.632L717.969 442.637V556.222Z" fill="white"/>
<rect id="rectangle6" x="715" y="442.6" width="113.59" height="64" transform="rotate(90 715 442.6)" fill="white"/>
</g>
<g id="group7">
<path id="shape7" d="M669.332 528.747L610.496 469.904C588.32 447.725 588.321 411.769 610.498 389.592V389.592C632.677 367.412 668.637 367.414 690.815 389.594L749.647 448.433L669.332 528.747Z" fill="white"/>
<rect id="rectangle7" x="747.575" y="446.255" width="113.59" height="64" transform="rotate(135 747.575 446.255)" fill="white"/>
</g>
<g id="group8">
<path id="shape8" d="M662.66 504.039L662.665 420.828C662.667 389.464 688.093 364.039 719.458 364.039V364.039C750.825 364.039 776.252 389.468 776.25 420.835L776.245 504.039L662.66 504.039Z" fill="white"/>
<rect id="rectangle8" x="776.2" y="502" width="113.59" height="64" transform="rotate(-180 776.2 502)" fill="white"/>
</g>
<rect id="clip sqaure" x="693" y="486" width="51" height="51" fill="#9CC4E3"/>
</g>
</svg>
