<svg width="490" height="379" viewBox="0 0 490 379" fill="none" xmlns="http://www.w3.org/2000/svg">
<g id="simple">
<rect width="490" height="379" fill="white"/>
<line id="center-line" x1="246.5" y1="63" x2="246.5" y2="327" stroke="#E0DEB3" stroke-width="3"/>
<circle id="top-ball" cx="245.5" cy="63.5" r="13.5" fill="#303E20"/>
<circle id="bottom-ball" cx="245.5" cy="332.5" r="13.5" fill="#859272"/>
<path id="dark-green" d="M195 152H295V195C295 214.33 279.33 230 260 230H195V152Z" fill="#303E20"/>
<path id="light-green" d="M295 152L295 230L195 230L195 203.293C195 174.965 217.97 152.004 246.301 152.004L295 152.004L295 152Z" fill="#859272"/>
<path id="yellow" d="M295 201.554L295 230L195 230L195 201.554C195 174.185 217.385 152 244.998 152C272.615 152 295 174.185 295 201.554Z" fill="#E0DEB3"/>
</g>
</svg>
